<?xml version="1.0" standalone="no"?><!DOCTYPE svg PUBLIC "-//W3C//DTD SVG 1.1//EN" "http://www.w3.org/Graphics/SVG/1.1/DTD/svg11.dtd"><svg t="1583659817741" class="icon" viewBox="0 0 1024 1024" version="1.1" xmlns="http://www.w3.org/2000/svg" p-id="2336" xmlns:xlink="http://www.w3.org/1999/xlink" width="200" height="200"><defs><style type="text/css"></style></defs><path d="M381.674792 569.074903c-50.102095 28.516474-57.530274-16.006556-57.530274-16.006556l-62.790068-149.585877c-24.159236-71.082942 20.909216-32.050973 20.909216-32.050973s38.670741 29.865191 68.020186 48.068785c29.333072 18.197454 62.770626 5.339612 62.770626 5.339612l410.484955-193.433524c-75.731822-96.207156-200.835098-159.113881-342.470909-159.113881-231.143381 0-418.500513 167.410847-418.500513 373.933481 0 118.792547 62.038962 224.521566 158.673859 293.049313l-17.426905 102.270245c0 0-8.496511 29.861098 20.945031 16.010649 20.063965-9.442046 71.210855-43.277666 101.657284-63.871703 47.865147 17.028838 100.008738 26.484188 154.674779 26.484188 231.123938 0 418.519955-167.410847 418.519955-373.939621 0-59.821457-15.790638-116.315122-43.76169-166.459173C725.068723 360.106568 420.875606 546.802644 381.674792 569.074903L381.674792 569.074903 381.674792 569.074903M381.674792 569.074903" p-id="2337"></path></svg>