<?xml version="1.0" standalone="no"?><!DOCTYPE svg PUBLIC "-//W3C//DTD SVG 1.1//EN" "http://www.w3.org/Graphics/SVG/1.1/DTD/svg11.dtd"><svg t="1586075597184" class="icon" viewBox="0 0 1024 1024" version="1.1" xmlns="http://www.w3.org/2000/svg" p-id="3405" xmlns:xlink="http://www.w3.org/1999/xlink" width="200" height="200"><defs><style type="text/css"></style></defs><path d="M42.666667 149.482667A106.752 106.752 0 0 1 149.482667 42.666667h725.034666A106.752 106.752 0 0 1 981.333333 149.482667v725.034666A106.752 106.752 0 0 1 874.517333 981.333333H149.482667A106.752 106.752 0 0 1 42.666667 874.517333V149.482667z m85.333333 0v725.034666C128 886.421333 137.578667 896 149.482667 896h725.034666c11.904 0 21.482667-9.578667 21.482667-21.482667V149.482667C896 137.578667 886.421333 128 874.517333 128H149.482667C137.578667 128 128 137.578667 128 149.482667zM550.4 631.466667l-141.056-105.813334-165.845333 165.845334a42.666667 42.666667 0 0 1-60.330667-60.330667l192-192A42.666667 42.666667 0 0 1 430.933333 435.2l142.464 106.837333 208.576-189.610666a42.666667 42.666667 0 1 1 57.386667 63.146666l-234.666667 213.333334a42.666667 42.666667 0 0 1-54.293333 2.56z" fill="" p-id="3406"></path></svg>