<?xml version="1.0" standalone="no"?><!DOCTYPE svg PUBLIC "-//W3C//DTD SVG 1.1//EN" "http://www.w3.org/Graphics/SVG/1.1/DTD/svg11.dtd"><svg t="1586075678256" class="icon" viewBox="0 0 1024 1024" version="1.1" xmlns="http://www.w3.org/2000/svg" p-id="7002" xmlns:xlink="http://www.w3.org/1999/xlink" width="200" height="200"><defs><style type="text/css"></style></defs><path d="M695.466667 352c-10.666667 6.4-19.2 17.066667-23.466667 29.866667-4.266667 12.8-2.133333 25.6 4.266667 36.266666 8.533333 14.933333 25.6 23.466667 42.666666 23.466667 8.533333 0 17.066667-2.133333 25.6-6.4 10.666667-6.4 19.2-17.066667 23.466667-29.866667 4.266667-12.8 2.133333-25.6-4.266667-36.266666-12.8-21.333333-44.8-29.866667-68.266666-17.066667z m51.2 49.066667c-2.133333 6.4-6.4 12.8-12.8 14.933333-12.8 6.4-29.866667 2.133333-36.266667-8.533333-4.266667-6.4-4.266667-12.8-2.133333-19.2 2.133333-6.4 6.4-12.8 12.8-14.933334 4.266667-2.133333 8.533333-4.266667 12.8-4.266666 8.533333 0 19.2 4.266667 23.466666 12.8 2.133333 6.4 4.266667 12.8 2.133334 19.2z m140.8-166.4L561.066667 53.333333c-27.733333-14.933333-72.533333-14.933333-100.266667 0L136.533333 234.666667C106.666667 251.733333 85.333333 288 85.333333 320v384c0 32 21.333333 68.266667 51.2 85.333333l326.4 181.333334c12.8 8.533333 32 12.8 49.066667 12.8s36.266667-4.266667 49.066667-12.8L887.466667 789.333333c27.733333-14.933333 51.2-53.333333 51.2-85.333333V320c0-32-21.333333-68.266667-51.2-85.333333z m6.4 469.333333c0 17.066667-12.8 38.4-27.733334 46.933333l-326.4 181.333334c-12.8 8.533333-42.666667 8.533333-55.466666 0L157.866667 750.933333c-14.933333-8.533333-27.733333-29.866667-27.733334-46.933333V320c0-17.066667 12.8-38.4 27.733334-46.933333l326.4-181.333334c6.4-4.266667 17.066667-6.4 27.733333-6.4s21.333333 2.133333 27.733333 6.4l326.4 181.333334c14.933333 8.533333 27.733333 29.866667 27.733334 46.933333v384zM277.333333 435.2c8.533333 4.266667 14.933333 6.4 25.6 6.4 17.066667 0 34.133333-8.533333 42.666667-23.466667 12.8-23.466667 6.4-53.333333-17.066667-66.133333-23.466667-12.8-53.333333-4.266667-68.266666 17.066667-12.8 23.466667-6.4 53.333333 17.066666 66.133333z m2.133334-53.333333c4.266667-8.533333 12.8-12.8 23.466666-12.8 4.266667 0 8.533333 2.133333 12.8 4.266666 12.8 6.4 17.066667 23.466667 10.666667 36.266667-6.4 12.8-23.466667 17.066667-36.266667 8.533333-12.8-8.533333-17.066667-23.466667-10.666666-36.266666zM740.266667 597.333333c-14.933333-8.533333-32-6.4-44.8 4.266667L571.733333 533.333333c2.133333-6.4 4.266667-12.8 4.266667-21.333333s-2.133333-14.933333-4.266667-21.333333l110.933334-64-10.666667-19.2-110.933333 64c-8.533333-10.666667-21.333333-19.2-36.266667-21.333334v-138.666666c14.933333-4.266667 27.733333-19.2 27.733333-36.266667 0-21.333333-17.066667-36.266667-38.4-36.266667s-38.4 17.066667-38.4 36.266667c0 17.066667 10.666667 29.866667 27.733334 36.266667v138.666666c-14.933333 2.133333-27.733333 10.666667-36.266667 21.333334l-110.933333-64-14.933334 21.333333 110.933334 64c-2.133333 6.4-4.266667 12.8-4.266667 21.333333s2.133333 14.933333 4.266667 21.333334l-123.733334 70.4c-12.8-10.666667-29.866667-12.8-44.8-4.266667-19.2 10.666667-23.466667 32-14.933333 51.2 10.666667 17.066667 34.133333 23.466667 51.2 12.8 14.933333-8.533333 21.333333-25.6 17.066667-40.533333l123.733333-70.4c8.533333 10.666667 21.333333 19.2 36.266667 21.333333v125.866667h23.466666V576c14.933333-2.133333 27.733333-10.666667 36.266667-21.333333l123.733333 70.4c-4.266667 14.933333 2.133333 32 17.066667 40.533333 19.2 10.666667 40.533333 4.266667 51.2-12.8 14.933333-21.333333 8.533333-44.8-8.533333-55.466667zM512 699.733333c-27.733333 0-49.066667 21.333333-49.066667 49.066667 0 25.6 21.333333 49.066667 49.066667 49.066667 27.733333 0 49.066667-21.333333 49.066667-49.066667 0-27.733333-21.333333-49.066667-49.066667-49.066667z m0 74.666667c-14.933333 0-27.733333-12.8-27.733333-25.6 0-14.933333 12.8-25.6 27.733333-25.6 14.933333 0 27.733333 12.8 27.733333 25.6-2.133333 12.8-12.8 25.6-27.733333 25.6z" p-id="7003"></path></svg>